<svg width="830" height="199" viewBox="0 0 622.5 149.25" version="1.2" xmlns:xlink="http://www.w3.org/1999/xlink" xmlns="http://www.w3.org/2000/svg"><defs><symbol overflow="visible" id="a"><path style="stroke:none" d="M.453-14.328h10.938v1.625H6.906V0H4.953v-12.703h-4.5zm0 0"/></symbol><symbol overflow="visible" id="b"><path style="stroke:none" d="M10.094-6.656V0H8.313v-6.656c0-.969-.172-1.676-.516-2.125-.336-.457-.867-.688-1.594-.688-.824 0-1.46.293-1.906.875-.438.586-.656 1.422-.656 2.516V0H1.875v-14.938h1.766v5.797c.312-.613.734-1.078 1.265-1.39.54-.32 1.18-.485 1.922-.485 1.094 0 1.91.368 2.453 1.094.54.719.813 1.809.813 3.266zm0 0"/></symbol><symbol overflow="visible" id="c"><path style="stroke:none" d="M10.75-6.25v.86H3.094v.046c-.055 1.469.226 2.528.844 3.172.613.637 1.476.953 2.593.953.563 0 1.149-.086 1.766-.265.613-.176 1.27-.446 1.969-.813v1.75c-.68.274-1.329.477-1.954.61A8.052 8.052 0 0 1 6.5.28c-1.668 0-2.969-.5-3.906-1.5-.938-1-1.406-2.379-1.406-4.14 0-1.72.457-3.086 1.375-4.11.914-1.031 2.144-1.547 3.687-1.547 1.363 0 2.441.47 3.234 1.407.79.93 1.211 2.046 1.266 3.359Zm-1.766-.531a3.385 3.385 0 0 0-.812-1.922c-.461-.54-1.125-.813-2-.813-.856 0-1.559.282-2.11.844-.542.563-.84 1.2-.89 1.906zm0 0"/></symbol><symbol overflow="visible" id="d"><path style="stroke:none" d="M3.594-1.36v5.454H1.828V-10.75h1.766v1.375c.3-.531.695-.938 1.187-1.219.489-.281 1.051-.422 1.688-.422 1.3 0 2.32.508 3.062 1.516.739 1 1.11 2.39 1.11 4.172 0 1.75-.375 3.125-1.125 4.125C8.773-.211 7.758.28 6.469.28c-.657 0-1.23-.14-1.719-.422a2.954 2.954 0 0 1-1.156-1.218Zm5.187-4c0-1.374-.219-2.41-.656-3.109-.43-.695-1.07-1.047-1.922-1.047-.855 0-1.508.356-1.953 1.063-.438.7-.656 1.73-.656 3.094 0 1.355.219 2.386.656 3.093.445.7 1.098 1.047 1.953 1.047.852 0 1.492-.347 1.922-1.047.438-.695.656-1.726.656-3.093zm0 0"/></symbol><symbol overflow="visible" id="e"><path style="stroke:none" d="M6.734-5.406h-.578c-1.031 0-1.808.183-2.328.547-.523.367-.781.902-.781 1.609 0 .648.191 1.152.578 1.516.395.355.938.53 1.625.53.969 0 1.727-.331 2.281-1 .563-.675.848-1.612.86-2.812v-.39Zm3.422-.735V0H8.391v-1.594c-.375.637-.852 1.11-1.422 1.422-.574.3-1.274.453-2.094.453-1.094 0-1.969-.304-2.625-.922-.648-.625-.969-1.453-.969-2.484 0-1.195.399-2.102 1.203-2.719.801-.625 1.977-.937 3.532-.937H8.39v-.282c-.012-.851-.23-1.472-.657-1.859-.43-.394-1.109-.594-2.046-.594-.606 0-1.215.09-1.829.266a7.692 7.692 0 0 0-1.796.75v-1.766c.656-.25 1.28-.437 1.874-.562a8.614 8.614 0 0 1 1.75-.188c.883 0 1.641.137 2.266.407A3.682 3.682 0 0 1 9.5-9.438c.238.325.406.72.5 1.188.102.469.156 1.172.156 2.11zm0 0"/></symbol><symbol overflow="visible" id="f"><path style="stroke:none" d="M8.234-5.469c0-1.32-.218-2.328-.656-3.015-.43-.688-1.055-1.032-1.875-1.032-.867 0-1.527.344-1.984 1.032-.45.687-.672 1.695-.672 3.015 0 1.336.226 2.352.687 3.047.457.688 1.118 1.031 1.985 1.031.812 0 1.43-.347 1.86-1.046.437-.696.655-1.708.655-3.032zM10-.687c0 1.613-.383 2.832-1.14 3.656-.762.832-1.883 1.25-3.36 1.25-.492 0-1-.047-1.531-.14a10.301 10.301 0 0 1-1.594-.391V1.952c.633.29 1.207.504 1.719.64.508.145.976.22 1.406.22.945 0 1.64-.262 2.078-.782.438-.523.656-1.344.656-2.469v-1.265C7.954-1.11 7.566-.66 7.078-.36c-.48.293-1.07.437-1.766.437-1.261 0-2.265-.5-3.015-1.5-.742-1.008-1.11-2.36-1.11-4.047 0-1.687.368-3.031 1.11-4.031.75-1.008 1.754-1.516 3.015-1.516.688 0 1.27.141 1.75.422.477.274.868.7 1.172 1.281v-1.406H10Zm0 0"/></symbol><symbol overflow="visible" id="g"><path style="stroke:none" d="M6.906-3.89c0 .792.145 1.39.438 1.796.289.406.718.61 1.281.61h2.063V0H8.453C7.398 0 6.582-.336 6-1.016c-.574-.675-.86-1.632-.86-2.875v-9.718H2.298v-1.375h4.61Zm0 0"/></symbol><symbol overflow="visible" id="h"><path style="stroke:none" d="M8.234-3.453C7.941-2.703 7.566-1.72 7.11-.5c-.636 1.688-1.062 2.719-1.28 3.094-.294.5-.665.875-1.11 1.125-.438.25-.95.375-1.532.375H1.766V2.609h1.046c.52 0 .926-.152 1.22-.453.288-.304.663-1.078 1.124-2.328L1-10.75h1.875l3.188 8.406 3.125-8.406h1.874zm0 0"/></symbol><symbol overflow="visible" id="i"><path style="stroke:none" d="M5.906-9.516c-.898 0-1.574.352-2.031 1.047-.46.7-.688 1.735-.688 3.11 0 1.355.227 2.386.688 3.093.457.7 1.133 1.047 2.031 1.047.907 0 1.586-.347 2.047-1.047.457-.707.688-1.738.688-3.093 0-1.375-.23-2.41-.688-3.11-.46-.695-1.14-1.047-2.047-1.047Zm0-1.5c1.5 0 2.64.485 3.422 1.454.79.968 1.188 2.37 1.188 4.203 0 1.836-.399 3.234-1.188 4.203C8.547-.196 7.406.28 5.906.28c-1.492 0-2.633-.476-3.422-1.437-.78-.969-1.171-2.367-1.171-4.203 0-1.832.39-3.235 1.171-4.204.79-.968 1.93-1.453 3.422-1.453zm0 0"/></symbol><symbol overflow="visible" id="j"><path style="stroke:none" d="M1.875-4.063v-6.671h1.766v6.671c0 .961.171 1.668.515 2.125.344.461.867.688 1.578.688.832 0 1.47-.29 1.907-.875.445-.594.671-1.438.671-2.531v-6.078h1.782V0H8.313v-1.61C8-.991 7.57-.522 7.03-.202 6.488.117 5.86.28 5.141.28c-1.106 0-1.93-.36-2.47-1.078-.53-.719-.796-1.805-.796-3.265Zm0 0"/></symbol><symbol overflow="visible" id="k"><path style="stroke:none" d="M5.89-13.797v3.047h4.016v1.375H5.891v5.828c0 .805.148 1.36.453 1.672.3.313.828.469 1.578.469h1.984V0H7.75C6.426 0 5.488-.266 4.937-.797c-.542-.531-.812-1.445-.812-2.75v-5.828H1.25v-1.375h2.875v-3.047zm0 0"/></symbol><symbol overflow="visible" id="l"><path style="stroke:none" d="M2.063-14.328h1.953v12.703h6.921V0H2.063zm0 0"/></symbol><symbol overflow="visible" id="n"><path style="stroke:none" d="M1.89-14.328h8.5v1.625H3.829v3.86h6.281v1.64H3.83v5.578h6.75V0H1.89zm0 0"/></symbol><symbol overflow="visible" id="o"><path style="stroke:none" d="M.828-14.328h2.078l3.156 5.406 3.204-5.406h2.078L7.047-7.594 11.657 0H9.561l-3.5-6.172L2.267 0H.172l4.797-7.594Zm0 0"/></symbol><symbol overflow="visible" id="p"><path style="stroke:none" d="M10.188-.547a6.16 6.16 0 0 1-1.47.61c-.5.144-1.015.218-1.546.218-1.656 0-2.953-.5-3.89-1.5-.938-1-1.407-2.379-1.407-4.14 0-1.77.469-3.157 1.406-4.157.938-1 2.235-1.5 3.89-1.5.52 0 1.024.07 1.516.204.5.136 1 .343 1.5.624v1.86c-.468-.414-.937-.719-1.406-.906-.469-.188-1.008-.282-1.61-.282-1.105 0-1.952.36-2.546 1.079-.594.718-.89 1.746-.89 3.078 0 1.324.296 2.343.89 3.062.602.719 1.453 1.078 2.547 1.078.613 0 1.164-.093 1.656-.281a4.082 4.082 0 0 0 1.36-.875zm0 0"/></symbol><symbol overflow="visible" id="q"><path style="stroke:none" d="M9.344-10.375v1.734a6.777 6.777 0 0 0-1.531-.671 5.717 5.717 0 0 0-1.563-.22c-.805 0-1.402.134-1.797.391-.387.262-.578.657-.578 1.188 0 .48.145.84.438 1.078.289.23 1.019.46 2.187.688l.719.125c.875.167 1.535.5 1.984 1 .457.5.688 1.152.688 1.953 0 1.062-.383 1.898-1.141 2.5C8-.016 6.953.28 5.61.28 5.077.281 4.52.223 3.936.11a16.123 16.123 0 0 1-1.89-.5v-1.828a9.414 9.414 0 0 0 1.89.766c.602.168 1.172.25 1.704.25.78 0 1.382-.156 1.812-.469.426-.32.64-.766.64-1.328 0-.82-.78-1.39-2.343-1.703l-.078-.016-.656-.14c-1.024-.196-1.766-.532-2.235-1-.469-.47-.703-1.11-.703-1.922 0-1.032.348-1.828 1.047-2.39.695-.563 1.691-.845 2.984-.845.582 0 1.141.059 1.672.172a8.64 8.64 0 0 1 1.563.469zm0 0"/></symbol><symbol overflow="visible" id="m"><path style="stroke:none" d="M4.14-8.828 2.704-3.703h2.86Zm-.827-1.203h1.656L8.03 0H6.625l-.734-2.61H2.375L1.656 0H.25Zm0 0"/></symbol></defs><path style="fill:#fff;stroke-width:1.45384" d="M4.12 0h614.253a4.111 4.111 0 0 1 4.12 4.122v140.324a4.111 4.111 0 0 1-4.12 4.12H4.12A4.111 4.111 0 0 1 0 144.444V4.12A4.111 4.111 0 0 1 4.12 0Z"/><path style="fill:#a3a3a3;fill-opacity:.2;stroke-width:1.45384" d="M0 148.569v-.204h622.492v.204zm0-4.123v-.204h622.492v.204zm0-4.123v-.204h622.492v.204zm0-4.117v-.204h622.492v.204zm0-4.124v-.203h622.492v.203zm0-4.121v-.205h622.492v.203zm0-4.117v-.205h622.492v.203zm0-4.123v-.205h622.492v.203zm0-4.124v-.205h622.492v.204zm0-4.117v-.205h622.492v.204zm0-4.123v-.203h622.492v.203zm0-4.123v-.204h622.492v.204zm0-4.117v-.204h622.492v.204zm0-4.123v-.204h622.492v.204zm0-4.123v-.204h622.492v.204zm0-4.118v-.203h622.492v.203zm0-4.123v-.203h622.492v.203zm0-4.123v-.203h622.492v.203zm0-4.117v-.204h622.492v.204zm0-4.123v-.204h622.492v.204zm0-4.123v-.204h622.492v.204zm0-4.118v-.203h622.492v.203zm0-4.123V57.7h622.492v.203zm0-4.123v-.203h622.492v.203zm0-4.117v-.203h622.492v.203zm0-4.123v-.204h622.492v.204zm0-4.123v-.204h622.492v.204zm0-4.123v-.204h622.492v.204zm0-4.117v-.204h622.492v.204zm0-4.124v-.203h622.492v.203zm0-4.123v-.203h622.492v.203zm0-4.117v-.203h622.492v.203zm0-4.123v-.203h622.492v.203zm0-4.123v-.204h622.492v.204zM0 8.45v-.204h622.492v.204zm0-4.123v-.204h622.492v.204zM0 .205V0h622.492v.204Z"/><path style="fill:#a3a3a3;fill-opacity:.2;stroke-width:1.45384" d="M0 148.563V0h.206v148.563Zm4.123 0V0h.207v148.563Zm4.117 0V0h.207v148.563Zm4.123 0V0h.207v148.563Zm4.124 0V0h.206v148.563Zm4.117 0V0h.206v148.563Zm4.121 0V0h.208v148.563Zm4.123 0V0h.208v148.563Zm4.118 0V0h.208v148.563Zm4.123 0V0h.208v148.563Zm4.123 0V0h.208v148.563Zm4.123 0V0h.208v148.563Zm4.117 0V0h.208v148.563Zm4.123 0V0h.208v148.563Zm4.123 0V0h.208v148.563Zm4.118 0V0h.208v148.563Zm4.123 0V0h.208v148.563Zm4.123 0V0h.208v148.563Zm4.117 0V0h.208v148.563Zm4.123 0V0h.208v148.563Zm4.123 0V0h.208v148.563Zm4.118 0V0h.207v148.563Zm4.123 0V0h.208v148.563Zm4.123 0V0h.206v148.563Zm4.117 0V0h.206v148.563Zm4.123 0V0h.206v148.563Zm4.123 0V0h.207v148.563Zm4.117 0V0h.207v148.563Zm4.123 0V0h.207v148.563Zm4.124 0V0h.206v148.563Zm4.117 0V0h.206v148.563Zm4.123 0V0h.206v148.563Zm4.123 0V0h.206v148.563Zm4.117 0V0h.207v148.563Zm4.123 0V0h.207v148.563Zm4.123 0V0h.207v148.563Zm4.118 0V0h.206v148.563Zm4.121 0V0h.208v148.563Zm4.123 0V0h.208v148.563Zm4.118 0V0h.208v148.563Zm4.123 0V0h.208v148.563Zm4.123 0V0h.208v148.563Zm4.117 0V0h.208v148.563Zm4.123 0V0h.208v148.563Zm4.123 0V0h.208v148.563Zm4.117 0V0h.208v148.563Zm4.124 0V0h.207v148.563Zm4.123 0V0h.208v148.563Zm4.117 0V0h.208v148.563Zm4.123 0V0h.208v148.563Zm4.123 0V0h.208v148.563Zm4.123 0V0h.208v148.563Zm4.117 0V0h.208v148.563Zm4.123 0V0h.208v148.563Zm4.124 0V0h.206v148.563Zm4.117 0V0h.206v148.563Zm4.123 0V0h.206v148.563Zm4.123 0V0h.206v148.563Zm4.117 0V0h.207v148.563Zm4.123 0V0h.207v148.563Zm4.123 0V0h.207v148.563Zm4.118 0V0h.206v148.563Zm4.123 0V0h.206v148.563Zm4.123 0V0h.206v148.563Zm4.117 0V0h.207v148.563Zm4.123 0V0h.207v148.563Zm4.122 0V0h.208v148.563Zm4.119 0V0h.206v148.563Zm4.121 0V0h.208v148.563Zm4.123 0V0h.208v148.563Zm4.117 0V0h.208v148.563Zm4.124 0V0h.207v148.563Zm4.123 0V0h.208v148.563Zm4.117 0V0h.208v148.563Zm4.123 0V0h.208v148.563Zm4.123 0V0h.208v148.563Zm4.117 0V0h.208v148.563Zm4.123 0V0h.208v148.563Zm4.123 0V0h.208v148.563Zm4.118 0V0h.208v148.563Zm4.123 0V0h.208v148.563Zm4.123 0V0h.208v148.563Zm4.117 0V0h.208v148.563Zm4.123 0V0h.208v148.563Zm4.123 0V0h.208v148.563Zm4.118 0V0h.208v148.563Zm4.123 0V0h.206v148.563Zm4.123 0V0h.206v148.563Zm4.117 0V0h.206v148.563Zm4.123 0V0h.207v148.563Zm4.123 0V0h.207v148.563Zm4.117 0V0h.207v148.563Zm4.124 0V0h.206v148.563Zm4.123 0V0h.206v148.563Zm4.123 0V0h.206v148.563Zm4.117 0V0h.206v148.563Zm4.123 0V0h.206v148.563Zm4.122 0V0h.208v148.563Zm4.118 0V0h.207v148.563Zm4.122 0V0h.208v148.563Zm4.123 0V0h.208v148.563Zm4.117 0V0h.208v148.563Zm4.123 0V0h.208v148.563Zm4.124 0V0h.207v148.563Zm4.117 0V0h.208v148.563Zm4.123 0V0h.208v148.563Zm4.123 0V0h.208v148.563Zm4.117 0V0h.208v148.563Zm4.123 0V0h.208v148.563Zm4.123 0V0h.208v148.563Zm4.118 0V0h.208v148.563Zm4.123 0V0h.208v148.563Zm4.123 0V0h.208v148.563Zm4.117 0V0h.208v148.563Zm4.123 0V0h.208v148.563Zm4.123 0V0h.208v148.563Zm4.117 0V0h.208v148.563Zm4.124 0V0h.206v148.563Zm4.123 0V0h.206v148.563Zm4.117 0V0h.206v148.563Zm4.123 0V0h.206v148.563Zm4.123 0V0h.207v148.563Zm4.117 0V0h.207v148.563Zm4.123 0V0h.207v148.563Zm4.123 0V0h.207v148.563Zm4.118 0V0h.206v148.563Zm4.123 0V0h.206v148.563Zm4.123 0V0h.206v148.563Zm4.117 0V0h.207v148.563Zm4.123 0V0h.207v148.563Zm4.122 0V0h.208v148.563Zm4.117 0V0h.208v148.563Zm4.123 0V0h.208v148.563Zm4.123 0V0h.208v148.563Zm4.123 0V0h.208v148.563Zm4.118 0V0h.208v148.563Zm4.123 0V0h.208v148.563Zm4.123 0V0h.208v148.563Zm4.117 0V0h.208v148.563Zm4.123 0V0h.208v148.563Zm4.123 0V0h.208v148.563Zm4.117 0V0h.208v148.563Zm4.124 0V0h.207v148.563Zm4.123 0V0h.208v148.563Zm4.117 0V0h.208v148.563Zm4.123 0V0h.208v148.563Zm4.123 0V0h.208v148.563Zm4.117 0V0h.208v148.563Zm4.123 0V0h.207v148.563Zm4.124 0V0h.206v148.563Zm4.117 0V0h.206v148.563Zm4.123 0V0h.203l.003 148.563Z"/><path style="fill:#000;stroke-width:1.09038" d="M12.176.1v8.246h.58V.1Zm597.567 0v8.246h.58V.1ZM.103 12.174v.58h8.24v-.58zm614.053 0v.58h8.24v-.58zM.103 135.812v.58h8.24v-.579H.103Zm614.053 0v.58h8.24v-.579h-8.24zm-601.98 4.408v8.245h.58v-8.245zm597.567 0v8.245h.58v-8.245z"/><path style="color:#000;fill:#a3a3a3;fill-opacity:.2;stroke-width:1.45384;stroke-miterlimit:10;-inkscape-stroke:none" d="M0 136.206v-.204h622.492v.204zm0-20.609v-.205h622.492v.204zm0-20.603v-.204h622.492v.204zM0 74.39v-.204h622.492v.204zm0-20.61v-.203h622.492v.203zm0-20.603v-.204h622.492v.204zm0-20.61v-.204h622.492v.204z"/><path style="color:#000;fill:#a3a3a3;fill-opacity:.2;stroke-width:1.45384;stroke-miterlimit:10;-inkscape-stroke:none" d="M12.363 148.563V0h.207v148.563Zm20.603 0V0h.208v148.563Zm20.61 0V0h.207v148.563Zm20.603 0V0h.208v148.563Zm20.61 0V0h.206v148.563Zm20.603 0V0h.207v148.563Zm20.604 0V0h.207v148.563Zm20.608 0V0h.208v148.563Zm20.604 0V0h.208v148.563Zm20.604 0V0h.208v148.563Zm20.61 0V0h.207v148.563Zm20.603 0V0h.207v148.563Zm20.61 0V0h.206v148.563Zm20.602 0V0h.208v148.563Zm20.604 0V0h.208v148.563Zm20.61 0V0h.207v148.563Zm20.603 0V0h.208v148.563Zm20.604 0V0h.206v148.563Zm20.61 0V0h.206v148.563Zm20.603 0V0h.207v148.563Zm20.609 0V0h.207v148.563Zm20.603 0V0h.208v148.563Zm20.604 0V0h.208v148.563Zm20.61 0V0h.206v148.563Zm20.603 0V0h.207v148.563Zm20.604 0V0h.207v148.563Zm20.608 0V0h.208v148.563Zm20.604 0V0h.208v148.563Zm20.61 0V0h.208v148.563Zm20.603 0V0h.207v148.563Z"/><path style="fill:none;stroke:#ffbfbf;stroke-width:.56693;stroke-linecap:butt;stroke-linejoin:miter;stroke-miterlimit:10;stroke-opacity:1" d="M-.001.002v56.691h382.683V.002Zm0 0" transform="matrix(1.45384 0 0 -1.45384 33.072 115.497)"/><use xlink:href="#a" x="22.085" y="79.101" width="100%" height="100%" style="fill:#000;fill-opacity:1" transform="matrix(1.45384 0 0 1.45384 .103 .102)"/><use xlink:href="#b" x="33.385" y="79.101" width="100%" height="100%" style="fill:#000;fill-opacity:1" transform="matrix(1.45384 0 0 1.45384 .103 .102)"/><use xlink:href="#c" x="44.665" y="79.101" width="100%" height="100%" style="fill:#000;fill-opacity:1" transform="matrix(1.45384 0 0 1.45384 .103 .102)"/><use xlink:href="#d" x="68.386" y="79.101" width="100%" height="100%" style="fill:#000;fill-opacity:1" transform="matrix(1.45384 0 0 1.45384 .103 .102)"/><use xlink:href="#e" x="80.472" y="79.101" width="100%" height="100%" style="fill:#000;fill-opacity:1" transform="matrix(1.45384 0 0 1.45384 .103 .102)"/><use xlink:href="#f" x="92.735" y="79.101" width="100%" height="100%" style="fill:#000;fill-opacity:1" transform="matrix(1.45384 0 0 1.45384 .103 .102)"/><use xlink:href="#c" x="104.605" y="79.101" width="100%" height="100%" style="fill:#000;fill-opacity:1" transform="matrix(1.45384 0 0 1.45384 .103 .102)"/><use xlink:href="#g" x="114.529" y="79.101" width="100%" height="100%" style="fill:#000;fill-opacity:1" transform="matrix(1.45384 0 0 1.45384 .103 .102)"/><use xlink:href="#e" x="125.81" y="79.101" width="100%" height="100%" style="fill:#000;fill-opacity:1" transform="matrix(1.45384 0 0 1.45384 .103 .102)"/><use xlink:href="#h" x="137.287" y="79.101" width="100%" height="100%" style="fill:#000;fill-opacity:1" transform="matrix(1.45384 0 0 1.45384 .103 .102)"/><use xlink:href="#i" x="148.39" y="79.101" width="100%" height="100%" style="fill:#000;fill-opacity:1" transform="matrix(1.45384 0 0 1.45384 .103 .102)"/><use xlink:href="#j" x="159.671" y="79.101" width="100%" height="100%" style="fill:#000;fill-opacity:1" transform="matrix(1.45384 0 0 1.45384 .103 .102)"/><use xlink:href="#k" x="170.362" y="79.101" width="100%" height="100%" style="fill:#000;fill-opacity:1" transform="matrix(1.45384 0 0 1.45384 .103 .102)"/><use xlink:href="#l" x="194.082" y="79.101" width="100%" height="100%" style="fill:#000;fill-opacity:1" transform="matrix(1.45384 0 0 1.45384 .103 .102)"/><use xlink:href="#m" x="198.886" y="74.787" width="100%" height="100%" style="fill:#000;fill-opacity:1" transform="matrix(1.45384 0 0 1.45384 .103 .102)"/><use xlink:href="#a" x="204.241" y="79.101" width="100%" height="100%" style="fill:#000;fill-opacity:1" transform="matrix(1.45384 0 0 1.45384 .103 .102)"/><use xlink:href="#n" x="212.828" y="84.475" width="100%" height="100%" style="fill:#000;fill-opacity:1" transform="matrix(1.45384 0 0 1.45384 .103 .102)"/><use xlink:href="#o" x="222.239" y="79.101" width="100%" height="100%" style="fill:#000;fill-opacity:1" transform="matrix(1.45384 0 0 1.45384 .103 .102)"/><use xlink:href="#p" x="245.979" y="79.101" width="100%" height="100%" style="fill:#000;fill-opacity:1" transform="matrix(1.45384 0 0 1.45384 .103 .102)"/><use xlink:href="#g" x="255.707" y="79.101" width="100%" height="100%" style="fill:#000;fill-opacity:1" transform="matrix(1.45384 0 0 1.45384 .103 .102)"/><use xlink:href="#e" x="266.987" y="79.101" width="100%" height="100%" style="fill:#000;fill-opacity:1" transform="matrix(1.45384 0 0 1.45384 .103 .102)"/><use xlink:href="#q" x="278.838" y="79.101" width="100%" height="100%" style="fill:#000;fill-opacity:1" transform="matrix(1.45384 0 0 1.45384 .103 .102)"/><use xlink:href="#q" x="289.745" y="79.101" width="100%" height="100%" style="fill:#000;fill-opacity:1" transform="matrix(1.45384 0 0 1.45384 .103 .102)"/></svg>