<svg xmlns="http://www.w3.org/2000/svg" xmlns:xlink="http://www.w3.org/1999/xlink" width="320" height="239" viewBox="0 0 167.24 124.72"><defs><path id="b" d="M.422-2.89h.39v2.562h1.391V0H.422Zm0 0"/><path id="c" d="M1.188-1.922a.45.45 0 0 0-.407.219q-.14.204-.14.625 0 .409.14.625a.46.46 0 0 0 .407.203q.281.001.421-.203.141-.217.141-.625 0-.42-.14-.625a.47.47 0 0 0-.423-.219m0-.297c.3 0 .53.102.687.297q.248.282.25.844-.002.55-.25.844-.235.298-.687.297-.44 0-.688-.297-.234-.294-.234-.844 0-.562.234-.844c.164-.195.395-.297.688-.297m0 0"/><path id="d" d="M2.234-1.719A.6.6 0 0 0 2-1.844a.6.6 0 0 0-.25-.047q-.345.001-.516.22c-.117.136-.171.335-.171.593V0h-.36v-2.172h.36v.422a.7.7 0 0 1 .265-.344.78.78 0 0 1 .438-.125q.139.001.25.031a.9.9 0 0 1 .218.094Zm0 0"/><path id="e" d="M2.172-1.266v.172H.625v.016q-.017.44.172.64.188.189.516.188.17 0 .359-.047.186-.06.406-.172v.36a3 3 0 0 1-.406.125 1.5 1.5 0 0 1-.36.047Q.81.063.517-.234.234-.545.234-1.078q0-.529.282-.828.28-.312.75-.313.406 0 .64.281c.164.188.254.415.266.672m-.36-.109a.62.62 0 0 0-.156-.375.5.5 0 0 0-.406-.172.6.6 0 0 0-.437.172.62.62 0 0 0-.172.39Zm0 0"/><path id="f" d="M1.313-1.953a.45.45 0 0 1 .156-.203.5.5 0 0 1 .25-.063q.263.002.375.203c.07.137.11.391.11.766V0h-.329v-1.234q-.002-.468-.062-.578a.18.18 0 0 0-.172-.11q-.16.001-.22.125-.062.111-.062.563V0h-.312v-1.234c0-.313-.024-.504-.063-.578-.03-.07-.101-.11-.203-.11a.21.21 0 0 0-.203.125q-.047.111-.047.563V0H.22v-2.172H.53v.188a.5.5 0 0 1 .156-.172.473.473 0 0 1 .469 0q.094.064.157.203m0 0"/><path id="g" d="M.61-2.156h.921v1.875h.703V0H.47v-.281h.703v-1.61H.609ZM1.171-3h.36v.438h-.36Zm0 0"/><path id="h" d="M.734-.266V.828H.375v-3h.36v.281a.55.55 0 0 1 .218-.234.7.7 0 0 1 .36-.094q.386.001.609.313.218.3.219.828-.001.533-.22.844a.72.72 0 0 1-.608.297.8.8 0 0 1-.36-.079.6.6 0 0 1-.219-.25m1.032-.812q-.001-.42-.125-.625a.43.43 0 0 0-.391-.219.44.44 0 0 0-.39.219c-.087.137-.126.344-.126.625Q.733-.67.86-.453a.45.45 0 0 0 .391.203q.263.001.39-.203.125-.217.126-.625m0 0"/><path id="i" d="M1.89-2.094v.344a2 2 0 0 0-.312-.125 1.1 1.1 0 0 0-.312-.047q-.252 0-.375.078a.27.27 0 0 0-.11.235q-.001.141.078.218c.063.055.211.102.454.141l.14.031a.7.7 0 0 1 .406.203c.094.094.141.227.141.391q0 .314-.234.5-.236.188-.641.188-.158 0-.328-.047a3 3 0 0 1-.39-.094v-.375a1.6 1.6 0 0 0 .734.203.6.6 0 0 0 .359-.094.3.3 0 0 0 .14-.265c0-.164-.163-.282-.484-.344h-.015l-.125-.031Q.7-1.046.563-1.187a.53.53 0 0 1-.141-.391q-.001-.31.203-.469.217-.17.61-.172a1.8 1.8 0 0 1 .656.125m0 0"/><path id="j" d="M.375-.828v-1.344h.36v1.344q0 .299.093.437.105.141.328.141.247.002.375-.172.14-.187.14-.516v-1.234h.36V0h-.36v-.328a.73.73 0 0 1-.265.297.7.7 0 0 1-.375.094c-.218 0-.386-.07-.5-.22Q.374-.371.375-.827m0 0"/><path id="k" d="M1.656-1.89v-1.126h.36V0h-.36v-.266a.63.63 0 0 1-.234.25.7.7 0 0 1-.344.079.75.75 0 0 1-.625-.297q-.22-.31-.219-.86c0-.351.07-.629.22-.828a.76.76 0 0 1 .624-.297q.201 0 .344.094.152.083.234.234M.61-1.079q-.001.409.125.625a.46.46 0 0 0 .407.203q.246.001.375-.203.14-.217.14-.625 0-.42-.14-.625a.41.41 0 0 0-.375-.219.45.45 0 0 0-.407.219c-.086.137-.125.344-.125.625m0 0"/><path id="l" d="M1.39-.781q-.002.235.079.36.091.126.265.124h.422V0h-.453a.64.64 0 0 1-.5-.203q-.174-.201-.172-.578V-2.75H.47v-.281h.922Zm0 0"/><path id="m" d="M1.188-2.781v.61H2v.28h-.812v1.172q0 .251.093.344c.063.063.164.094.313.094H2V0h-.437q-.41.001-.579-.156Q.827-.326.828-.72V-1.89H.25v-.28h.578v-.61Zm0 0"/><path id="n" d="M1.36-1.094h-.126c-.199 0-.355.04-.468.11q-.158.11-.157.328 0 .205.11.312a.55.55 0 0 0 .344.094q.293.001.453-.203.17-.199.172-.563v-.078Zm.687-.14V0h-.36v-.328a.7.7 0 0 1-.28.297.9.9 0 0 1-.423.094C.766.063.586 0 .454-.125a.64.64 0 0 1-.204-.5Q.249-1 .5-1.187q.248-.188.719-.188h.468v-.047q0-.263-.125-.375-.128-.124-.421-.125a1.2 1.2 0 0 0-.36.063 1.5 1.5 0 0 0-.36.14v-.36q.188-.058.376-.093.186-.047.344-.047.28.002.468.078a.85.85 0 0 1 .313.235c.039.062.07.148.094.25q.03.14.03.422m0 0"/><path id="o" d="M.86-.703h.609v.516L1.03.656h-.39l.218-.843Zm0 0"/><path id="p" d="M2.063-.11c-.106.055-.211.094-.313.126a1 1 0 0 1-.297.047Q.95.063.656-.234q-.28-.311-.281-.844 0-.545.281-.844c.196-.195.461-.297.797-.297q.155 0 .297.047.154.035.313.11v.374a.8.8 0 0 0-.297-.171.8.8 0 0 0-.313-.063q-.344 0-.531.219-.174.221-.172.625-.002.393.172.61c.125.148.3.218.531.218q.187 0 .328-.047a.8.8 0 0 0 .282-.187Zm0 0"/><path id="q" d="M2.031-1.344V0h-.36v-1.344q-.001-.293-.109-.422-.094-.14-.312-.14a.48.48 0 0 0-.39.172c-.087.117-.126.28-.126.5V0H.375v-2.172h.36v.328a.65.65 0 0 1 .25-.281.8.8 0 0 1 .39-.094q.328 0 .484.219.172.222.172.656m0 0"/><path id="r" d="M.203-1.406H2.25v.328H.203Zm0 0"/><path id="s" d="M1.656-1.11q-.001-.387-.125-.593a.41.41 0 0 0-.375-.219.45.45 0 0 0-.406.219q-.14.206-.14.594 0 .409.14.625a.46.46 0 0 0 .406.203q.247 0 .375-.203.124-.217.125-.625m.36.97q0 .481-.235.734-.22.264-.672.265Q.968.86.797.83A4 4 0 0 1 .484.75V.39C.61.454.723.493.828.517a1 1 0 0 0 .281.046q.294-.002.422-.156.124-.158.125-.5v-.25a.6.6 0 0 1-.234.282.7.7 0 0 1-.344.078.75.75 0 0 1-.625-.297Q.233-.593.234-1.11c0-.332.07-.598.22-.797a.74.74 0 0 1 .624-.313.7.7 0 0 1 .344.078c.101.055.18.141.234.266v-.281h.36Zm0 0"/><path id="t" d="M.75-.781h.688V0H.75Zm0 0"/><path id="u" d="M.281-1.11v-1.78h.39v1.953q0 .22.016.312A.26.26 0 0 0 .735-.5q.06.129.172.188a.8.8 0 0 0 .282.046.7.7 0 0 0 .28-.046.4.4 0 0 0 .188-.188.4.4 0 0 0 .047-.125c.008-.062.016-.16.016-.297V-2.89h.39v1.782q-.002.438-.062.625a.8.8 0 0 1-.188.312.9.9 0 0 1-.296.172q-.159.062-.375.063C1.05.063.926.039.813 0A.9.9 0 0 1 .53-.172a.7.7 0 0 1-.203-.312Q.281-.671.281-1.11m0 0"/><path id="v" d="M.188-2.172h.375l.625 1.828.64-1.828h.375L1.422 0H.969Zm0 0"/><path id="w" d="M1.781-1.078q0-.42-.14-.625a.43.43 0 0 0-.391-.219.44.44 0 0 0-.39.219c-.087.137-.126.344-.126.625Q.733-.67.86-.453a.45.45 0 0 0 .391.203q.263.001.39-.203.141-.217.141-.625M.734-1.891a.55.55 0 0 1 .22-.234.7.7 0 0 1 .359-.094c.257 0 .46.102.609.297q.234.3.234.828 0 .55-.234.86a.72.72 0 0 1-.61.297.8.8 0 0 1-.359-.079.6.6 0 0 1-.219-.25V0H.375v-3.016h.36Zm0 0"/><path id="x" d="M2.063-3.016v.297h-.407q-.189.002-.265.078-.08.083-.079.282v.187h.75v.281h-.75V0H.954v-1.89H.375v-.282h.578v-.156q-.001-.34.156-.516.171-.17.516-.172Zm0 0"/><path id="y" d="M2.078-.11a.8.8 0 0 1-.312.126 1.2 1.2 0 0 1-.328.047q-.55 0-.86-.391-.313-.405-.312-1.11c0-.476.101-.847.312-1.109q.31-.405.86-.406.17 0 .328.047.17.047.312.125v.39q-.142-.107-.312-.171a1 1 0 0 0-.328-.063.66.66 0 0 0-.579.297q-.187.3-.187.89 0 .599.187.891c.133.188.329.281.579.281a.9.9 0 0 0 .328-.062q.17-.06.312-.172Zm0 0"/><path id="z" d="M.031-2.89h.547L1.703-.517V-2.89h.422V0h-.547L.453-2.375V0H.031Zm0 0"/><path id="A" d="M1.656-.703q-.08.235-.218.61-.189.497-.266.609A.6.6 0 0 1 .953.75a.6.6 0 0 1-.312.078H.359V.531h.204a.34.34 0 0 0 .25-.094q.093-.093.234-.468l-.844-2.14h.375l.64 1.702.641-1.703h.375Zm0 0"/><path id="B" d="M.844-.328q.499 0 .687-.234.201-.248.203-.875-.002-.639-.203-.891-.188-.248-.687-.25H.656v2.25Zm.015-2.563c.438 0 .758.121.97.36q.31.345.312 1.094Q2.14-.7 1.828-.344 1.514.001.86 0H.266v-2.89Zm0 0"/><path id="C" d="M2.031-1.344V0h-.36v-1.344q-.001-.293-.109-.422-.094-.14-.312-.14a.48.48 0 0 0-.39.172c-.087.117-.126.28-.126.5V0H.375v-3.016h.36v1.172a.65.65 0 0 1 .25-.281.8.8 0 0 1 .39-.094q.328 0 .484.219.172.222.172.656m0 0"/><path id="D" d="M.64-1.078q-.001.423.126.64a.45.45 0 0 0 .39.204q.263 0 .39-.203.142-.219.141-.641 0-.405-.14-.61a.43.43 0 0 0-.39-.218.44.44 0 0 0-.391.218c-.086.137-.125.34-.125.61m1.047.812a.7.7 0 0 1-.25.25.7.7 0 0 1-.328.079.75.75 0 0 1-.625-.297C.336-.43.266-.707.266-1.062c0-.364.07-.645.218-.844a.74.74 0 0 1 .625-.313q.188 0 .329.094a.65.65 0 0 1 .25.234v-.265h.359V.828h-.36Zm0 0"/><path id="E" d="M.766-2.578v1.094h.468q.265 0 .407-.141c.101-.094.156-.227.156-.406a.51.51 0 0 0-.156-.39.53.53 0 0 0-.407-.157Zm-.391-.313h.86q.481.001.734.22c.164.148.25.358.25.64q-.002.439-.25.656-.253.22-.735.219H.766V0H.375Zm0 0"/><path id="F" d="M.063-2.89h.53l.5 1.468.5-1.469h.532V0h-.36v-2.547L1.25-1.03H.953L.438-2.547V0H.063Zm0 0"/><clipPath id="a"><path d="M0 0h167.238v124.719H0Zm0 0"/></clipPath><clipPath id="G"><path d="M5 121h1v3.719H5Zm0 0"/></clipPath><clipPath id="H"><path d="M164 118h3.238v2H164Zm0 0"/></clipPath><clipPath id="I"><path d="M161 121h1v3.719h-1Zm0 0"/></clipPath><clipPath id="J"><path d="M164 5h3.238v1H164Zm0 0"/></clipPath></defs><g clip-path="url(#a)"><path fill="#FFF" d="M0 121.887V2.828A2.836 2.836 0 0 1 2.836-.008H164.41a2.836 2.836 0 0 1 2.836 2.836v119.059a2.835 2.835 0 0 1-2.836 2.832H2.836A2.835 2.835 0 0 1 0 121.887m0 0"/><path fill="none" stroke="#A6A6A6" stroke-linecap="square" stroke-miterlimit="10" stroke-opacity=".2" stroke-width=".142" d="M-8.504 133.223h175.75m-175.75-2.832h175.75m-175.75-2.836h175.75m-175.75-2.836h175.75m-175.75-2.832h175.75m-175.75-2.836h175.75m-175.75-2.836h175.75m-175.75-2.832h175.75m-175.75-2.836h175.75m-175.75-2.836h175.75m-175.75-2.832h175.75m-175.75-2.836h175.75m-175.75-2.836h175.75m-175.75-2.832h175.75m-175.75-2.836h175.75m-175.75-2.836h175.75m-175.75-2.832h175.75m-175.75-2.836h175.75M-8.504 82.2h175.75m-175.75-2.832h175.75m-175.75-2.836h175.75m-175.75-2.836h175.75m-175.75-2.832h175.75m-175.75-2.836h175.75m-175.75-2.836h175.75m-175.75-2.836h175.75m-175.75-2.832h175.75m-175.75-2.836h175.75m-175.75-2.835h175.75M-8.504 51.02h175.75m-175.75-2.836h175.75m-175.75-2.836h175.75m-175.75-2.832h175.75M-8.504 39.68h175.75m-175.75-2.836h175.75m-175.75-2.832h175.75m-175.75-2.836h175.75M-8.504 28.34h175.75m-175.75-2.832h175.75m-175.75-2.836h175.75m-175.75-2.836h175.75m-175.75-2.832h175.75m-175.75-2.836h175.75m-175.75-2.836h175.75M-8.504 8.5h175.75M-8.504 5.664h175.75M-8.504 2.828h175.75M-8.504-.004h175.75M-8.504 133.223V-.007m2.836 133.23V-.007m2.832 133.23V-.007M0 133.222V-.007m2.836 133.23V-.007m2.832 133.23V-.007m2.836 133.23V-.007m2.836 133.23V-.007m2.832 133.23V-.007m2.836 133.23V-.007m2.836 133.23V-.007m2.832 133.23V-.007m2.836 133.23V-.007m2.836 133.23V-.007m2.832 133.23V-.007m2.836 133.23V-.007m2.836 133.23V-.007m2.832 133.23V-.007m2.836 133.23V-.007m2.835 133.23V-.007m2.833 133.23V-.007m2.835 133.23V-.007m2.836 133.23V-.007m2.832 133.23V-.007m2.836 133.23V-.007m2.836 133.23V-.007m2.836 133.23V-.007m2.832 133.23V-.007m2.836 133.23V-.007m2.836 133.23V-.007m2.832 133.23V-.007m2.836 133.23V-.007m2.836 133.23V-.007m2.832 133.23V-.007m2.836 133.23V-.007m2.836 133.23V-.007m2.832 133.23V-.007m2.836 133.23V-.007m2.836 133.23V-.007m2.832 133.23V-.007m2.836 133.23V-.007m2.836 133.23V-.007m2.832 133.23V-.007m2.836 133.23V-.007m2.836 133.23V-.007m2.832 133.23V-.007m2.836 133.23V-.007m2.836 133.23V-.007m2.832 133.23V-.007m2.836 133.23V-.007m2.835 133.23V-.007m2.833 133.23V-.007m2.835 133.23V-.007m2.836 133.23V-.007m2.832 133.23V-.007m2.836 133.23V-.007m2.836 133.23V-.007m2.832 133.23V-.007m2.836 133.23V-.007m2.836 133.23V-.007m2.832 133.23V-.007m2.836 133.23V-.007m2.836 133.23V-.007M-8.504 133.223h175.75M-8.504 119.05h175.75m-175.75-14.172h175.75M-8.504 90.703h175.75M-8.504 76.531h175.75M-8.504 62.355h175.75M-8.504 48.184h175.75M-8.504 34.012h175.75M-8.504 19.836h175.75M-8.504 5.664h175.75M-8.504 133.223V-.007m14.172 133.23V-.007m14.176 133.23V-.007m14.172 133.23V-.007m14.175 133.23V-.007m14.172 133.23V-.007m14.172 133.23V-.007m14.176 133.23V-.007m14.172 133.23V-.007m14.172 133.23V-.007m14.175 133.23V-.007m14.172 133.23V-.007m14.176 133.23V-.007"/></g><use xlink:href="#b" x="19.842" y="22.878"/><use xlink:href="#c" x="22.24" y="22.878"/><use xlink:href="#d" x="24.638" y="22.878"/><use xlink:href="#e" x="27.036" y="22.878"/><use xlink:href="#f" x="29.438" y="22.878"/><use xlink:href="#g" x="36.338" y="22.878"/><use xlink:href="#h" x="38.736" y="22.878"/><use xlink:href="#i" x="41.138" y="22.878"/><use xlink:href="#j" x="43.536" y="22.878"/><use xlink:href="#f" x="45.934" y="22.878"/><use xlink:href="#k" x="52.834" y="22.878"/><use xlink:href="#c" x="55.236" y="22.878"/><use xlink:href="#l" x="57.634" y="22.878"/><use xlink:href="#c" x="60.032" y="22.878"/><use xlink:href="#d" x="62.43" y="22.878"/><use xlink:href="#i" x="69.335" y="22.878"/><use xlink:href="#g" x="71.733" y="22.878"/><use xlink:href="#m" x="74.131" y="22.878"/><use xlink:href="#n" x="19.842" y="27.66"/><use xlink:href="#f" x="22.24" y="27.66"/><use xlink:href="#e" x="24.638" y="27.66"/><use xlink:href="#m" x="27.036" y="27.66"/><use xlink:href="#o" x="29.438" y="27.66"/><use xlink:href="#p" x="34.409" y="27.66"/><use xlink:href="#c" x="36.807" y="27.66"/><use xlink:href="#q" x="39.205" y="27.66"/><use xlink:href="#i" x="41.607" y="27.66"/><use xlink:href="#e" x="44.005" y="27.66"/><use xlink:href="#p" x="46.403" y="27.66"/><use xlink:href="#m" x="48.801" y="27.66"/><use xlink:href="#e" x="51.203" y="27.66"/><use xlink:href="#m" x="53.601" y="27.66"/><use xlink:href="#j" x="55.999" y="27.66"/><use xlink:href="#e" x="58.397" y="27.66"/><use xlink:href="#d" x="60.799" y="27.66"/><use xlink:href="#n" x="65.734" y="27.66"/><use xlink:href="#k" x="68.132" y="27.66"/><use xlink:href="#g" x="70.534" y="27.66"/><use xlink:href="#h" x="72.932" y="27.66"/><use xlink:href="#r" x="75.33" y="27.66"/><use xlink:href="#g" x="19.842" y="32.442"/><use xlink:href="#i" x="22.24" y="32.442"/><use xlink:href="#p" x="24.638" y="32.442"/><use xlink:href="#g" x="27.036" y="32.442"/><use xlink:href="#q" x="29.438" y="32.442"/><use xlink:href="#s" x="31.836" y="32.442"/><use xlink:href="#e" x="38.935" y="32.442"/><use xlink:href="#l" x="41.333" y="32.442"/><use xlink:href="#g" x="43.735" y="32.442"/><use xlink:href="#m" x="46.133" y="32.442"/><use xlink:href="#t" x="48.531" y="32.442"/><use xlink:href="#u" x="61.033" y="32.442"/><use xlink:href="#m" x="63.435" y="32.442"/><use xlink:href="#h" x="70.534" y="32.442"/><use xlink:href="#j" x="72.932" y="32.442"/><use xlink:href="#r" x="75.33" y="32.442"/><use xlink:href="#d" x="19.842" y="37.224"/><use xlink:href="#j" x="22.24" y="37.224"/><use xlink:href="#i" x="24.638" y="37.224"/><use xlink:href="#e" x="29.533" y="37.224"/><use xlink:href="#l" x="31.931" y="37.224"/><use xlink:href="#g" x="34.329" y="37.224"/><use xlink:href="#m" x="36.731" y="37.224"/><use xlink:href="#o" x="39.129" y="37.224"/><use xlink:href="#v" x="44.048" y="37.224"/><use xlink:href="#e" x="46.446" y="37.224"/><use xlink:href="#i" x="48.844" y="37.224"/><use xlink:href="#m" x="51.242" y="37.224"/><use xlink:href="#g" x="53.644" y="37.224"/><use xlink:href="#w" x="56.042" y="37.224"/><use xlink:href="#j" x="58.44" y="37.224"/><use xlink:href="#l" x="60.838" y="37.224"/><use xlink:href="#j" x="63.24" y="37.224"/><use xlink:href="#f" x="65.638" y="37.224"/><use xlink:href="#j" x="70.534" y="37.224"/><use xlink:href="#m" x="72.932" y="37.224"/><use xlink:href="#o" x="75.33" y="37.224"/><use xlink:href="#h" x="19.842" y="42.006"/><use xlink:href="#l" x="22.24" y="42.006"/><use xlink:href="#n" x="24.638" y="42.006"/><use xlink:href="#p" x="27.036" y="42.006"/><use xlink:href="#e" x="29.438" y="42.006"/><use xlink:href="#d" x="31.836" y="42.006"/><use xlink:href="#n" x="34.234" y="42.006"/><use xlink:href="#m" x="36.632" y="42.006"/><use xlink:href="#n" x="42.103" y="42.006"/><use xlink:href="#p" x="44.501" y="42.006"/><use xlink:href="#o" x="46.903" y="42.006"/><use xlink:href="#n" x="52.541" y="42.006"/><use xlink:href="#k" x="54.939" y="42.006"/><use xlink:href="#g" x="57.337" y="42.006"/><use xlink:href="#h" x="59.739" y="42.006"/><use xlink:href="#g" x="62.137" y="42.006"/><use xlink:href="#i" x="64.535" y="42.006"/><use xlink:href="#p" x="66.933" y="42.006"/><use xlink:href="#g" x="69.335" y="42.006"/><use xlink:href="#q" x="71.733" y="42.006"/><use xlink:href="#s" x="74.131" y="42.006"/><use xlink:href="#v" x="19.723" y="46.788"/><use xlink:href="#g" x="22.121" y="46.788"/><use xlink:href="#m" x="24.519" y="46.788"/><use xlink:href="#n" x="26.917" y="46.788"/><use xlink:href="#e" x="29.319" y="46.788"/><use xlink:href="#o" x="31.717" y="46.788"/><use xlink:href="#x" x="36.795" y="46.788"/><use xlink:href="#e" x="39.193" y="46.788"/><use xlink:href="#l" x="41.591" y="46.788"/><use xlink:href="#g" x="43.993" y="46.788"/><use xlink:href="#i" x="46.391" y="46.788"/><use xlink:href="#t" x="48.789" y="46.788"/><use xlink:href="#y" x="55.058" y="46.788"/><use xlink:href="#j" x="57.456" y="46.788"/><use xlink:href="#d" x="59.858" y="46.788"/><use xlink:href="#n" x="62.256" y="46.788"/><use xlink:href="#w" x="64.654" y="46.788"/><use xlink:href="#g" x="67.052" y="46.788"/><use xlink:href="#m" x="69.454" y="46.788"/><use xlink:href="#j" x="71.852" y="46.788"/><use xlink:href="#d" x="74.25" y="46.788"/><use xlink:href="#k" x="19.842" y="51.57"/><use xlink:href="#g" x="22.24" y="51.57"/><use xlink:href="#p" x="24.638" y="51.57"/><use xlink:href="#m" x="27.036" y="51.57"/><use xlink:href="#j" x="29.438" y="51.57"/><use xlink:href="#f" x="31.836" y="51.57"/><use xlink:href="#s" x="39.427" y="51.57"/><use xlink:href="#d" x="41.829" y="51.57"/><use xlink:href="#n" x="44.227" y="51.57"/><use xlink:href="#v" x="46.625" y="51.57"/><use xlink:href="#g" x="49.023" y="51.57"/><use xlink:href="#k" x="51.425" y="51.57"/><use xlink:href="#n" x="53.823" y="51.57"/><use xlink:href="#f" x="61.414" y="51.57"/><use xlink:href="#n" x="63.812" y="51.57"/><use xlink:href="#j" x="66.214" y="51.57"/><use xlink:href="#d" x="68.612" y="51.57"/><use xlink:href="#g" x="71.01" y="51.57"/><use xlink:href="#i" x="73.408" y="51.57"/><use xlink:href="#t" x="75.81" y="51.57"/><use xlink:href="#z" x="19.842" y="56.352"/><use xlink:href="#n" x="22.24" y="56.352"/><use xlink:href="#f" x="24.638" y="56.352"/><use xlink:href="#n" x="31.749" y="56.352"/><use xlink:href="#d" x="34.147" y="56.352"/><use xlink:href="#p" x="36.545" y="56.352"/><use xlink:href="#j" x="38.943" y="56.352"/><use xlink:href="#l" x="46.053" y="56.352"/><use xlink:href="#g" x="48.451" y="56.352"/><use xlink:href="#w" x="50.853" y="56.352"/><use xlink:href="#e" x="53.251" y="56.352"/><use xlink:href="#d" x="55.649" y="56.352"/><use xlink:href="#c" x="58.047" y="56.352"/><use xlink:href="#o" x="60.449" y="56.352"/><use xlink:href="#q" x="68.136" y="56.352"/><use xlink:href="#c" x="70.534" y="56.352"/><use xlink:href="#q" x="72.932" y="56.352"/><use xlink:href="#r" x="75.33" y="56.352"/><use xlink:href="#j" x="19.842" y="61.134"/><use xlink:href="#f" x="22.24" y="61.134"/><use xlink:href="#f" x="24.638" y="61.134"/><use xlink:href="#A" x="27.036" y="61.134"/><use xlink:href="#e" x="32.563" y="61.134"/><use xlink:href="#s" x="34.961" y="61.134"/><use xlink:href="#e" x="37.359" y="61.134"/><use xlink:href="#m" x="39.757" y="61.134"/><use xlink:href="#o" x="42.158" y="61.134"/><use xlink:href="#p" x="47.86" y="61.134"/><use xlink:href="#c" x="50.262" y="61.134"/><use xlink:href="#q" x="52.66" y="61.134"/><use xlink:href="#i" x="55.058" y="61.134"/><use xlink:href="#e" x="57.456" y="61.134"/><use xlink:href="#p" x="59.858" y="61.134"/><use xlink:href="#m" x="62.256" y="61.134"/><use xlink:href="#e" x="64.654" y="61.134"/><use xlink:href="#m" x="67.052" y="61.134"/><use xlink:href="#j" x="69.454" y="61.134"/><use xlink:href="#e" x="71.852" y="61.134"/><use xlink:href="#d" x="74.25" y="61.134"/><use xlink:href="#g" x="19.842" y="65.916"/><use xlink:href="#k" x="22.24" y="65.916"/><use xlink:href="#o" x="24.638" y="65.916"/><use xlink:href="#v" x="30.577" y="65.916"/><use xlink:href="#j" x="32.975" y="65.916"/><use xlink:href="#l" x="35.373" y="65.916"/><use xlink:href="#h" x="37.771" y="65.916"/><use xlink:href="#j" x="40.173" y="65.916"/><use xlink:href="#m" x="42.571" y="65.916"/><use xlink:href="#n" x="44.969" y="65.916"/><use xlink:href="#m" x="47.367" y="65.916"/><use xlink:href="#e" x="49.769" y="65.916"/><use xlink:href="#n" x="55.479" y="65.916"/><use xlink:href="#o" x="57.877" y="65.916"/><use xlink:href="#f" x="63.812" y="65.916"/><use xlink:href="#n" x="66.214" y="65.916"/><use xlink:href="#s" x="68.612" y="65.916"/><use xlink:href="#q" x="71.01" y="65.916"/><use xlink:href="#n" x="73.408" y="65.916"/><use xlink:href="#t" x="75.81" y="65.916"/><use xlink:href="#B" x="19.842" y="70.698"/><use xlink:href="#c" x="22.24" y="70.698"/><use xlink:href="#q" x="24.638" y="70.698"/><use xlink:href="#e" x="27.036" y="70.698"/><use xlink:href="#p" x="29.438" y="70.698"/><use xlink:href="#v" x="38.589" y="70.698"/><use xlink:href="#e" x="40.987" y="70.698"/><use xlink:href="#C" x="43.389" y="70.698"/><use xlink:href="#g" x="45.787" y="70.698"/><use xlink:href="#p" x="48.185" y="70.698"/><use xlink:href="#j" x="50.583" y="70.698"/><use xlink:href="#l" x="52.985" y="70.698"/><use xlink:href="#n" x="55.383" y="70.698"/><use xlink:href="#n" x="64.535" y="70.698"/><use xlink:href="#j" x="66.933" y="70.698"/><use xlink:href="#s" x="69.335" y="70.698"/><use xlink:href="#j" x="71.733" y="70.698"/><use xlink:href="#e" x="74.131" y="70.698"/><use xlink:href="#e" x="19.842" y="75.48"/><use xlink:href="#j" x="22.24" y="75.48"/><use xlink:href="#q" x="31.113" y="75.48"/><use xlink:href="#e" x="33.515" y="75.48"/><use xlink:href="#D" x="35.913" y="75.48"/><use xlink:href="#j" x="38.311" y="75.48"/><use xlink:href="#e" x="40.709" y="75.48"/><use xlink:href="#t" x="43.111" y="75.48"/><use xlink:href="#E" x="60.94" y="75.481"/><use xlink:href="#e" x="63.338" y="75.481"/><use xlink:href="#l" x="65.736" y="75.481"/><use xlink:href="#l" x="68.134" y="75.481"/><use xlink:href="#e" x="70.536" y="75.481"/><use xlink:href="#q" x="72.934" y="75.481"/><use xlink:href="#r" x="75.332" y="75.481"/><use xlink:href="#m" x="19.842" y="80.263"/><use xlink:href="#e" x="22.24" y="80.263"/><use xlink:href="#i" x="24.638" y="80.263"/><use xlink:href="#D" x="27.036" y="80.263"/><use xlink:href="#j" x="29.438" y="80.263"/><use xlink:href="#e" x="31.836" y="80.263"/><use xlink:href="#C" x="39.788" y="80.263"/><use xlink:href="#n" x="42.186" y="80.263"/><use xlink:href="#w" x="44.588" y="80.263"/><use xlink:href="#g" x="46.986" y="80.263"/><use xlink:href="#m" x="49.384" y="80.263"/><use xlink:href="#n" x="51.782" y="80.263"/><use xlink:href="#q" x="54.184" y="80.263"/><use xlink:href="#m" x="56.582" y="80.263"/><use xlink:href="#f" x="64.535" y="80.263"/><use xlink:href="#c" x="66.933" y="80.263"/><use xlink:href="#d" x="69.335" y="80.263"/><use xlink:href="#w" x="71.733" y="80.263"/><use xlink:href="#g" x="74.131" y="80.263"/><use xlink:href="#m" x="19.842" y="85.045"/><use xlink:href="#d" x="22.24" y="85.045"/><use xlink:href="#g" x="24.638" y="85.045"/><use xlink:href="#i" x="27.036" y="85.045"/><use xlink:href="#m" x="29.438" y="85.045"/><use xlink:href="#g" x="31.836" y="85.045"/><use xlink:href="#D" x="34.234" y="85.045"/><use xlink:href="#j" x="36.632" y="85.045"/><use xlink:href="#e" x="39.034" y="85.045"/><use xlink:href="#i" x="43.135" y="85.045"/><use xlink:href="#e" x="45.533" y="85.045"/><use xlink:href="#q" x="47.935" y="85.045"/><use xlink:href="#e" x="50.333" y="85.045"/><use xlink:href="#p" x="52.731" y="85.045"/><use xlink:href="#m" x="55.129" y="85.045"/><use xlink:href="#j" x="57.531" y="85.045"/><use xlink:href="#i" x="59.929" y="85.045"/><use xlink:href="#e" x="64.03" y="85.045"/><use xlink:href="#m" x="66.428" y="85.045"/><use xlink:href="#q" x="70.534" y="85.045"/><use xlink:href="#e" x="72.932" y="85.045"/><use xlink:href="#r" x="75.33" y="85.045"/><use xlink:href="#m" x="19.842" y="89.827"/><use xlink:href="#j" x="22.24" y="89.827"/><use xlink:href="#i" x="24.638" y="89.827"/><use xlink:href="#e" x="30.74" y="89.827"/><use xlink:href="#m" x="33.138" y="89.827"/><use xlink:href="#f" x="39.24" y="89.827"/><use xlink:href="#n" x="41.638" y="89.827"/><use xlink:href="#l" x="44.04" y="89.827"/><use xlink:href="#e" x="46.438" y="89.827"/><use xlink:href="#i" x="48.836" y="89.827"/><use xlink:href="#j" x="51.234" y="89.827"/><use xlink:href="#n" x="53.636" y="89.827"/><use xlink:href="#k" x="56.034" y="89.827"/><use xlink:href="#n" x="58.432" y="89.827"/><use xlink:href="#x" x="64.535" y="89.827"/><use xlink:href="#n" x="66.933" y="89.827"/><use xlink:href="#f" x="69.335" y="89.827"/><use xlink:href="#e" x="71.733" y="89.827"/><use xlink:href="#i" x="74.131" y="89.827"/><use xlink:href="#n" x="19.842" y="94.609"/><use xlink:href="#p" x="22.24" y="94.609"/><use xlink:href="#m" x="27.421" y="94.609"/><use xlink:href="#j" x="29.819" y="94.609"/><use xlink:href="#d" x="32.217" y="94.609"/><use xlink:href="#h" x="34.615" y="94.609"/><use xlink:href="#g" x="37.017" y="94.609"/><use xlink:href="#i" x="39.415" y="94.609"/><use xlink:href="#e" x="44.596" y="94.609"/><use xlink:href="#s" x="46.994" y="94.609"/><use xlink:href="#e" x="49.392" y="94.609"/><use xlink:href="#i" x="51.794" y="94.609"/><use xlink:href="#m" x="54.192" y="94.609"/><use xlink:href="#n" x="56.59" y="94.609"/><use xlink:href="#i" x="58.988" y="94.609"/><use xlink:href="#t" x="61.39" y="94.609"/><use xlink:href="#F" x="68.132" y="94.609"/><use xlink:href="#n" x="70.534" y="94.609"/><use xlink:href="#j" x="72.932" y="94.609"/><use xlink:href="#r" x="75.33" y="94.609"/><use xlink:href="#d" x="19.842" y="99.391"/><use xlink:href="#g" x="22.24" y="99.391"/><use xlink:href="#i" x="24.638" y="99.391"/><use xlink:href="#j" x="28.93" y="99.391"/><use xlink:href="#m" x="31.328" y="99.391"/><use xlink:href="#l" x="35.62" y="99.391"/><use xlink:href="#e" x="38.022" y="99.391"/><use xlink:href="#c" x="40.42" y="99.391"/><use xlink:href="#t" x="42.818" y="99.391"/><use xlink:href="#y" x="48.249" y="99.391"/><use xlink:href="#d" x="50.647" y="99.391"/><use xlink:href="#n" x="53.045" y="99.391"/><use xlink:href="#i" x="55.447" y="99.391"/><use xlink:href="#v" x="59.739" y="99.391"/><use xlink:href="#g" x="62.137" y="99.391"/><use xlink:href="#v" x="64.535" y="99.391"/><use xlink:href="#e" x="66.933" y="99.391"/><use xlink:href="#d" x="69.335" y="99.391"/><use xlink:href="#d" x="71.733" y="99.391"/><use xlink:href="#n" x="74.131" y="99.391"/><use xlink:href="#f" x="19.842" y="104.173"/><use xlink:href="#e" x="22.24" y="104.173"/><use xlink:href="#m" x="24.638" y="104.173"/><use xlink:href="#j" x="27.036" y="104.173"/><use xlink:href="#i" x="29.438" y="104.173"/><use xlink:href="#d" x="33.511" y="104.173"/><use xlink:href="#C" x="35.909" y="104.173"/><use xlink:href="#c" x="38.311" y="104.173"/><use xlink:href="#q" x="40.709" y="104.173"/><use xlink:href="#p" x="43.107" y="104.173"/><use xlink:href="#j" x="45.505" y="104.173"/><use xlink:href="#i" x="47.907" y="104.173"/><use xlink:href="#i" x="51.981" y="104.173"/><use xlink:href="#e" x="54.379" y="104.173"/><use xlink:href="#f" x="56.781" y="104.173"/><use xlink:href="#t" x="59.179" y="104.173"/><use xlink:href="#z" x="64.535" y="104.173"/><use xlink:href="#j" x="66.933" y="104.173"/><use xlink:href="#l" x="69.335" y="104.173"/><use xlink:href="#l" x="71.733" y="104.173"/><use xlink:href="#n" x="74.131" y="104.173"/><use xlink:href="#e" x="90.709" y="22.877"/><use xlink:href="#m" x="93.107" y="22.877"/><use xlink:href="#l" x="102.258" y="22.877"/><use xlink:href="#e" x="104.656" y="22.877"/><use xlink:href="#p" x="107.058" y="22.877"/><use xlink:href="#m" x="109.456" y="22.877"/><use xlink:href="#j" x="111.854" y="22.877"/><use xlink:href="#i" x="114.252" y="22.877"/><use xlink:href="#v" x="123.408" y="22.877"/><use xlink:href="#e" x="125.806" y="22.877"/><use xlink:href="#i" x="128.204" y="22.877"/><use xlink:href="#m" x="130.602" y="22.877"/><use xlink:href="#g" x="133.004" y="22.877"/><use xlink:href="#w" x="135.402" y="22.877"/><use xlink:href="#j" x="137.8" y="22.877"/><use xlink:href="#l" x="140.198" y="22.877"/><use xlink:href="#j" x="142.6" y="22.877"/><use xlink:href="#f" x="144.998" y="22.877"/><use xlink:href="#j" x="90.709" y="27.659"/><use xlink:href="#d" x="93.107" y="27.659"/><use xlink:href="#q" x="95.505" y="27.659"/><use xlink:href="#n" x="97.903" y="27.659"/><use xlink:href="#x" x="103.096" y="27.659"/><use xlink:href="#d" x="105.494" y="27.659"/><use xlink:href="#g" x="107.896" y="27.659"/><use xlink:href="#q" x="110.294" y="27.659"/><use xlink:href="#s" x="112.692" y="27.659"/><use xlink:href="#g" x="115.094" y="27.659"/><use xlink:href="#l" x="117.492" y="27.659"/><use xlink:href="#l" x="119.89" y="27.659"/><use xlink:href="#n" x="122.288" y="27.659"/><use xlink:href="#j" x="127.481" y="27.659"/><use xlink:href="#l" x="129.883" y="27.659"/><use xlink:href="#m" x="132.281" y="27.659"/><use xlink:href="#d" x="134.679" y="27.659"/><use xlink:href="#g" x="137.077" y="27.659"/><use xlink:href="#p" x="139.479" y="27.659"/><use xlink:href="#e" x="141.877" y="27.659"/><use xlink:href="#i" x="144.275" y="27.659"/><use xlink:href="#t" x="146.673" y="27.659"/><use xlink:href="#E" x="90.709" y="32.441"/><use xlink:href="#C" x="93.107" y="32.441"/><use xlink:href="#n" x="95.505" y="32.441"/><use xlink:href="#i" x="97.903" y="32.441"/><use xlink:href="#e" x="100.301" y="32.441"/><use xlink:href="#l" x="102.703" y="32.441"/><use xlink:href="#l" x="105.101" y="32.441"/><use xlink:href="#j" x="107.499" y="32.441"/><use xlink:href="#i" x="109.897" y="32.441"/><use xlink:href="#e" x="115.201" y="32.441"/><use xlink:href="#j" x="117.599" y="32.441"/><use xlink:href="#m" x="122.903" y="32.441"/><use xlink:href="#e" x="125.301" y="32.441"/><use xlink:href="#l" x="127.699" y="32.441"/><use xlink:href="#l" x="130.097" y="32.441"/><use xlink:href="#j" x="132.499" y="32.441"/><use xlink:href="#i" x="134.897" y="32.441"/><use xlink:href="#i" x="140.198" y="32.441"/><use xlink:href="#g" x="142.6" y="32.441"/><use xlink:href="#m" x="144.998" y="32.441"/><use xlink:href="#n" x="90.709" y="37.223"/><use xlink:href="#f" x="93.107" y="37.223"/><use xlink:href="#e" x="95.505" y="37.223"/><use xlink:href="#m" x="97.903" y="37.223"/><use xlink:href="#m" x="102.004" y="37.223"/><use xlink:href="#c" x="104.406" y="37.223"/><use xlink:href="#d" x="106.804" y="37.223"/><use xlink:href="#m" x="109.202" y="37.223"/><use xlink:href="#c" x="111.604" y="37.223"/><use xlink:href="#d" x="114.002" y="37.223"/><use xlink:href="#s" x="118.103" y="37.223"/><use xlink:href="#d" x="120.501" y="37.223"/><use xlink:href="#n" x="122.903" y="37.223"/><use xlink:href="#v" x="125.301" y="37.223"/><use xlink:href="#g" x="127.699" y="37.223"/><use xlink:href="#k" x="130.097" y="37.223"/><use xlink:href="#n" x="132.499" y="37.223"/><use xlink:href="#h" x="136.601" y="37.223"/><use xlink:href="#l" x="138.999" y="37.223"/><use xlink:href="#n" x="141.397" y="37.223"/><use xlink:href="#p" x="143.799" y="37.223"/><use xlink:href="#r" x="146.197" y="37.223"/><use xlink:href="#e" x="90.709" y="42.005"/><use xlink:href="#d" x="93.107" y="42.005"/><use xlink:href="#n" x="95.505" y="42.005"/><use xlink:href="#m" x="97.903" y="42.005"/><use xlink:href="#t" x="100.301" y="42.005"/><path fill="none" stroke="#00E500" stroke-miterlimit="10" stroke-opacity=".2" stroke-width="14.173" d="M83.625 19.836v85.043"/><path fill="none" stroke="#00E500" stroke-miterlimit="10" stroke-opacity=".8" stroke-width=".567" d="M19.844 19.836v85.043h127.558V19.836Zm0 0"/><path fill="none" stroke="#000" stroke-miterlimit="10" stroke-width=".399" d="M-2.836 119.05h5.672"/><g clip-path="url(#G)"><path fill="none" stroke="#000" stroke-miterlimit="10" stroke-width=".399" d="M5.668 127.555v-5.668"/></g><path fill="none" stroke="#000" stroke-miterlimit="10" stroke-width=".399" d="M-2.836 5.664h5.672M5.668-2.84v5.668"/><g clip-path="url(#H)"><path fill="none" stroke="#000" stroke-miterlimit="10" stroke-width=".399" d="M170.082 119.05h-5.672"/></g><g clip-path="url(#I)"><path fill="none" stroke="#000" stroke-miterlimit="10" stroke-width=".399" d="M161.578 127.555v-5.668"/></g><g clip-path="url(#J)"><path fill="none" stroke="#000" stroke-miterlimit="10" stroke-width=".399" d="M170.082 5.664h-5.672"/></g><path fill="none" stroke="#000" stroke-miterlimit="10" stroke-width=".399" d="M161.578-2.84v5.668"/></svg>