<svg xmlns="http://www.w3.org/2000/svg" xmlns:xlink="http://www.w3.org/1999/xlink" width="320" height="239" viewBox="0 0 167.24 124.72"><defs><clipPath id="a"><path d="M0 0h167.238v124.719H0Zm0 0"/></clipPath><clipPath id="d"><path d="M5 121h1v3.719H5Zm0 0"/></clipPath><clipPath id="e"><path d="M164 118h3.238v2H164Zm0 0"/></clipPath><clipPath id="f"><path d="M161 121h1v3.719h-1Zm0 0"/></clipPath><clipPath id="g"><path d="M164 5h3.238v1H164Zm0 0"/></clipPath><path id="b" d="M2.078-2.875h3.64v-10.687l-3.39.843v-2.937l3.406-.813h3.141v13.594h3.64V0H2.079Zm0 0"/><path id="c" d="M4.781-2.875h6.953V0H1.266v-2.781L3.03-4.656q3.14-3.341 3.813-4.11.825-.949 1.187-1.687.375-.733.375-1.453-.002-1.09-.672-1.688c-.437-.406-1.07-.61-1.89-.61-.586 0-1.242.118-1.969.345q-1.078.344-2.25 1v-3.032a16 16 0 0 1 2.297-.64 10.8 10.8 0 0 1 2.172-.235c1.75 0 3.117.407 4.11 1.22q1.5 1.218 1.5 3.327a5.1 5.1 0 0 1-.329 1.828q-.33.845-1.11 1.875-.595.75-3.218 3.375zm0 0"/></defs><g clip-path="url(#a)"><path fill="#FFF" d="M0 121.887V2.828A2.836 2.836 0 0 1 2.836-.008H164.41a2.836 2.836 0 0 1 2.836 2.836v119.059a2.835 2.835 0 0 1-2.836 2.832H2.836A2.835 2.835 0 0 1 0 121.887m0 0"/><path fill="none" stroke="#A6A6A6" stroke-linecap="square" stroke-miterlimit="10" stroke-opacity=".2" stroke-width=".142" d="M-8.504 133.223h175.75m-175.75-2.832h175.75m-175.75-2.836h175.75m-175.75-2.836h175.75m-175.75-2.832h175.75m-175.75-2.836h175.75m-175.75-2.836h175.75m-175.75-2.832h175.75m-175.75-2.836h175.75m-175.75-2.836h175.75m-175.75-2.832h175.75m-175.75-2.836h175.75m-175.75-2.836h175.75m-175.75-2.832h175.75m-175.75-2.836h175.75m-175.75-2.836h175.75m-175.75-2.832h175.75m-175.75-2.836h175.75M-8.504 82.2h175.75m-175.75-2.832h175.75m-175.75-2.836h175.75m-175.75-2.836h175.75m-175.75-2.832h175.75m-175.75-2.836h175.75m-175.75-2.836h175.75m-175.75-2.836h175.75m-175.75-2.832h175.75m-175.75-2.836h175.75m-175.75-2.835h175.75M-8.504 51.02h175.75m-175.75-2.836h175.75m-175.75-2.836h175.75m-175.75-2.832h175.75M-8.504 39.68h175.75m-175.75-2.836h175.75m-175.75-2.832h175.75m-175.75-2.836h175.75M-8.504 28.34h175.75m-175.75-2.832h175.75m-175.75-2.836h175.75m-175.75-2.836h175.75m-175.75-2.832h175.75m-175.75-2.836h175.75m-175.75-2.836h175.75M-8.504 8.5h175.75M-8.504 5.664h175.75M-8.504 2.828h175.75M-8.504-.004h175.75M-8.504 133.223V-.007m2.836 133.23V-.007m2.832 133.23V-.007M0 133.222V-.007m2.836 133.23V-.007m2.832 133.23V-.007m2.836 133.23V-.007m2.836 133.23V-.007m2.832 133.23V-.007m2.836 133.23V-.007m2.836 133.23V-.007m2.832 133.23V-.007m2.836 133.23V-.007m2.836 133.23V-.007m2.832 133.23V-.007m2.836 133.23V-.007m2.836 133.23V-.007m2.832 133.23V-.007m2.836 133.23V-.007m2.835 133.23V-.007m2.833 133.23V-.007m2.835 133.23V-.007m2.836 133.23V-.007m2.832 133.23V-.007m2.836 133.23V-.007m2.836 133.23V-.007m2.836 133.23V-.007m2.832 133.23V-.007m2.836 133.23V-.007m2.836 133.23V-.007m2.832 133.23V-.007m2.836 133.23V-.007m2.836 133.23V-.007m2.832 133.23V-.007m2.836 133.23V-.007m2.836 133.23V-.007m2.832 133.23V-.007m2.836 133.23V-.007m2.836 133.23V-.007m2.832 133.23V-.007m2.836 133.23V-.007m2.836 133.23V-.007m2.832 133.23V-.007m2.836 133.23V-.007m2.836 133.23V-.007m2.832 133.23V-.007m2.836 133.23V-.007m2.836 133.23V-.007m2.832 133.23V-.007m2.836 133.23V-.007m2.835 133.23V-.007m2.833 133.23V-.007m2.835 133.23V-.007m2.836 133.23V-.007m2.832 133.23V-.007m2.836 133.23V-.007m2.836 133.23V-.007m2.832 133.23V-.007m2.836 133.23V-.007m2.836 133.23V-.007m2.832 133.23V-.007m2.836 133.23V-.007m2.836 133.23V-.007M-8.504 133.223h175.75M-8.504 119.05h175.75m-175.75-14.172h175.75M-8.504 90.703h175.75M-8.504 76.531h175.75M-8.504 62.355h175.75M-8.504 48.184h175.75M-8.504 34.012h175.75M-8.504 19.836h175.75M-8.504 5.664h175.75M-8.504 133.223V-.007m14.172 133.23V-.007m14.176 133.23V-.007m14.172 133.23V-.007m14.175 133.23V-.007m14.172 133.23V-.007m14.172 133.23V-.007m14.176 133.23V-.007m14.172 133.23V-.007m14.172 133.23V-.007m14.175 133.23V-.007m14.172 133.23V-.007m14.176 133.23V-.007"/></g><path fill="#B3E6FA" fill-opacity=".3" stroke="#66CEF5" stroke-miterlimit="10" stroke-opacity=".3" stroke-width=".283" d="M19.844 85.035V39.68h68.031v45.355Zm0 0"/><use xlink:href="#b" x="47.032" y="70.624" fill="#66CEF5" fill-opacity=".3"/><path fill="#B3E6FA" fill-opacity=".3" stroke="#66CEF5" stroke-miterlimit="10" stroke-opacity=".3" stroke-width=".283" d="M102.047 85.035V39.68h45.355v45.355Zm0 0"/><use xlink:href="#c" x="117.898" y="70.773" fill="#66CEF5" fill-opacity=".3"/><path fill="none" stroke="#00E500" stroke-miterlimit="10" stroke-opacity=".2" stroke-width="14.173" d="M94.96 39.68v45.355"/><path fill="none" stroke="#00E500" stroke-miterlimit="10" stroke-opacity=".8" stroke-width=".567" d="M19.844 39.68v45.355h127.558V39.68Zm0 0"/><path fill="none" stroke="#00E500" stroke-dasharray="2.83466 2.83466" stroke-miterlimit="10" stroke-opacity=".8" stroke-width=".567" d="M19.844 39.68V19.836h127.558V39.68M19.844 85.035v19.844h127.558V85.035"/><path fill="none" stroke="#000" stroke-miterlimit="10" stroke-width=".399" d="M-2.836 119.05h5.672"/><g clip-path="url(#d)"><path fill="none" stroke="#000" stroke-miterlimit="10" stroke-width=".399" d="M5.668 127.555v-5.668"/></g><path fill="none" stroke="#000" stroke-miterlimit="10" stroke-width=".399" d="M-2.836 5.664h5.672M5.668-2.84v5.668"/><g clip-path="url(#e)"><path fill="none" stroke="#000" stroke-miterlimit="10" stroke-width=".399" d="M170.082 119.05h-5.672"/></g><g clip-path="url(#f)"><path fill="none" stroke="#000" stroke-miterlimit="10" stroke-width=".399" d="M161.578 127.555v-5.668"/></g><g clip-path="url(#g)"><path fill="none" stroke="#000" stroke-miterlimit="10" stroke-width=".399" d="M170.082 5.664h-5.672"/></g><path fill="none" stroke="#000" stroke-miterlimit="10" stroke-width=".399" d="M161.578-2.84v5.668"/></svg>