<svg width="320" height="239" viewBox="0 0 240 179.25" version="1.2" xmlns:xlink="http://www.w3.org/1999/xlink" xmlns="http://www.w3.org/2000/svg"><defs><symbol overflow="visible" id="a"><path style="stroke:none" d="M2.078-2.875h3.64v-10.688l-3.39.844v-2.937l3.406-.813h3.141v13.594h3.64V0H2.079zm0 0"/></symbol></defs><path style="fill:#fff;stroke-width:1.43381" d="M4.065.004h231.869a4.056 4.056 0 0 1 4.065 4.065v170.906a4.056 4.056 0 0 1-4.065 4.064H4.064A4.056 4.056 0 0 1 0 174.975V4.07A4.056 4.056 0 0 1 4.065.004Z"/><path style="fill:#a6a6a6;fill-opacity:.2;stroke-width:1.43381" d="M0 179.037v-.203h239.999v.203zm0-4.06v-.204h239.999v.204zm0-4.066v-.204h239.999v.204zm0-4.068v-.2h239.999v.2zm0-4.058v-.205h239.999v.204zm0-4.066v-.205h239.999v.205zm0-4.066v-.205h239.999v.205zm0-4.061v-.205h239.999v.205zm0-4.066v-.205h239.999v.205zm0-4.067v-.205h239.999v.205zm0-4.06v-.205h239.999v.205zm0-4.066v-.205h239.999v.205zm0-4.067v-.205h239.999v.205zm0-4.06V126h239.999v.205zm0-4.067v-.205h239.999v.205zm0-4.069v-.2h239.999v.2zm0-4.06v-.201h239.999v.2zm0-4.067v-.2h239.999v.2zm0-4.066v-.2h239.999v.2zm0-4.058v-.205h239.999v.205zm0-4.069v-.2h239.999v.2zm0-4.066v-.2h239.999v.2zm0-4.066v-.201h239.999v.2zm0-4.058v-.204h239.999v.204zm0-4.07v-.2h239.999v.2zm0-4.063v-.2h239.999v.2zm0-4.06v-.204h239.999v.204ZM0 69.3v-.204h239.999v.204zm0-4.067v-.203h239.999v.203zm0-4.06v-.204h239.999v.204zm0-4.067v-.203h239.999v.203zm0-4.066v-.204h239.999v.204zm0-4.06v-.204h239.999v.204zm0-4.067v-.203h239.999v.203zm0-4.066v-.204h239.999v.204zm0-4.06v-.204h239.999v.203zm0-4.066v-.205h239.999v.205zm0-4.066v-.205h239.999v.205zm0-4.06v-.205h239.999v.205zm0-4.067v-.205h239.999v.205zm0-4.066v-.205h239.999v.205zm0-4.06v-.206h239.999v.205zm0-4.067V8.13h239.999v.205zM0 4.27v-.205h239.999v.205zM0 .21V.003h239.999V.21z"/><path style="fill:#a6a6a6;fill-opacity:.2;stroke-width:1.43381" d="M0 179.035V0h.2v179.033zm4.065 0V0h.2v179.033zm4.06 0V0h.2v179.033zm4.065 0V0h.202v179.033zm4.066 0V0h.202v179.033zm4.06 0V0h.203v179.033zm4.067 0V0h.202v179.033zm4.066 0V0h.203v179.033zm4.061 0V0h.202v179.033zm4.066 0V0h.201v179.033zm4.067 0V0h.205v179.033zm4.06 0V0h.2v179.033zm4.066 0V0h.205v179.033zm4.067 0V0h.205v179.033zm4.06 0V0h.205v179.033zm4.067 0V0h.205v179.033zm4.066 0V0h.2v179.033zm4.06 0V0h.208v179.033h-.2Zm4.067 0V0h.2v179.033zm4.066 0V0h.2v179.033zm4.06 0V0h.201v179.033zm4.067 0V0h.2v179.033zm4.066 0V0h.2v179.033zm4.066 0V0h.201v179.033zm4.061 0V0h.2v179.033zm4.066 0V0h.201v179.033zm4.067 0V0h.2v179.033zm4.06 0V0h.204v179.033zm4.066 0V0h.201v179.033zm4.067 0V0h.2v179.033zm4.06 0V0h.201v179.033zm4.067 0V0h.203v179.033zm4.066 0V0h.2v179.033zm4.06 0V0h.201v179.033zm4.067 0V0h.2v179.033zm4.065 0V0h.202v179.033zm4.057 0V0h.205v179.033zm4.07 0V0h.202v179.033zm4.066 0V0h.202v179.033zm4.06 0V0h.203v179.033zm4.064 0V0h.205v179.033zm4.069 0V0h.205v179.033zm4.06 0V0h.201v179.033zm4.067 0V0h.205v179.033zm4.063 0V0h.205v179.033zm4.064 0V0h.205v179.033zm4.066 0V0h.205v179.033zm4.066 0V0h.201v179.033zm4.06 0V0h.202v179.033zm4.067 0V0h.205v179.033zm4.066 0V0h.201v179.033zm4.061 0V0h.2v179.033zm4.066 0V0h.201v179.033zm4.067 0V0h.2v179.033zm4.06 0V0h.2v179.033zm4.066 0V0h.201v179.033zm4.067 0V0h.2v179.033zm4.06 0V0h.208v179.033h-.2zm4.067 0V0h.2v179.033zm4.066 0V0h.2v179.033z"/><path style="fill:#000;stroke-width:1.43381" d="M7.94.004v4.163h.57V.004zm223.546 0v4.163h.572V.004ZM0 7.946v.57h4.164v-.568H0Zm235.833 0v.57H240v-.568h-4.167zM0 170.525v.57h4.164v-.572H0Zm235.833 0v.57H240v-.572h-4.168zm-227.896 4.35v4.164h.571v-4.164zm223.546 0v4.164h.572v-4.164h-.57z"/><path style="fill:#a6a6a6;fill-opacity:.2;stroke-width:1.43381" d="M0 170.91v-.203h239.999v.204zm0-20.318v-.205h239.999v.205zm0-20.326v-.205h239.999v.205zm0-20.323v-.2h239.999v.2zm0-20.325v-.201h239.999v.2zM0 69.3v-.204h239.999v.204zm0-20.32v-.204h239.999v.204zm0-20.325v-.205h239.999v.205zm0-20.32V8.13h239.999v.205z"/><path style="fill:#a6a6a6;fill-opacity:.2;stroke-width:1.43381" d="M8.125 179.035V0h.2v179.033zm20.324 0V0h.203v179.033zm20.32 0V0h.205v179.033zm20.32 0V0h.208v179.033h-.2Zm20.326 0V0h.2v179.033zm20.32 0V0h.204v179.033zm20.326 0V0h.2v179.033zm20.318 0V0h.203v179.033zm20.32 0V0h.201v179.033zm20.326 0V0h.201v179.033zm20.32 0V0h.201v179.033zm20.32 0V0h.208v179.033h-.2z"/><path style="fill:#b3e6fa;fill-opacity:.3;fill-rule:nonzero;stroke:#66ccf5;stroke-width:.28346;stroke-linecap:butt;stroke-linejoin:miter;stroke-miterlimit:10;stroke-opacity:.3" d="M.002 0v45.355h68.031V0Zm0 0" transform="matrix(1.43382 0 0 -1.43382 28.552 122.026)"/><use xlink:href="#a" x="47.032" y="70.624" width="100%" height="100%" style="fill:#66ccf5;fill-opacity:.3" transform="translate(.102 .102) scale(1.43382)"/><path style="fill:none;stroke:#00e300;stroke-width:14.1734;stroke-linecap:butt;stroke-linejoin:miter;stroke-miterlimit:10;stroke-opacity:.2" d="M94.96 85.04V39.685" transform="matrix(1.43382 0 0 -1.43382 .102 178.927)"/><path style="fill:none;stroke:#00e300;stroke-width:.56693;stroke-linecap:butt;stroke-linejoin:miter;stroke-miterlimit:10;stroke-opacity:.8" d="M19.844 85.04V39.685h127.558V85.04zm0 0" transform="matrix(1.43382 0 0 -1.43382 .102 178.927)"/><path style="fill:none;stroke:#00e300;stroke-width:.56693;stroke-linecap:butt;stroke-linejoin:miter;stroke-miterlimit:10;stroke-dasharray:2.83466,2.83466;stroke-opacity:.8" d="M19.844 85.04v19.844h127.558V85.04M19.844 39.685V19.84h127.558v19.844" transform="matrix(1.43382 0 0 -1.43382 .102 178.927)"/></svg>